<?xml version="1.0" encoding="UTF-8"?>
<svg width="4e3" height="2250" version="1.1" viewBox="0 0 1058.3333 595.31252" xmlns="http://www.w3.org/2000/svg">
 <g transform="translate(0 298.31)">
  <rect x=".53452" y="-298.31" width="1057.8" height="595.22" fill="#161111"/>
  <g transform="matrix(.85908 0 0 .96111 75.891 -11.631)">
   <g transform="matrix(.79671 0 0 .78853 242.68 -168.94)">
    <path d="m563.62-9.9856a49.181 48.614 0 0 1 41.566 48.027 49.181 48.614 0 0 1 -49.181 48.614 49.181 48.614 0 0 1 -49.181 -48.614 49.181 48.614 0 0 1 41.773 -48.059" fill="none" stroke="#fff" stroke-width="2"/>
    <path d="m548.6-10.017c-8.7938 1.7001-17.264 5.8554-17.264 5.8554s15.502-6.7486 16.37-10.156c1.5412-6.0461-3.8754-10.156-3.8754-10.156l2.94-5.6127-3.6081-6.949 6.949-6.1472 15.234-0.66818 6.2808 8.0181-3.7418 4.1427 2.4054 3.6081-4.1427 6.4145s-2.3386 6.0804 3.1404 10.624 10.136 5.1876 17.84 10.824c-7.6239-5.969-16.252-8.4573-23.27-9.6157" fill="none" stroke="#16f6f6" stroke-width="2"/>
    <path d="m551.65-44.694a6.2184 6.214 0 0 1 6.1104 -6.2902 6.2184 6.214 0 0 1 6.3245 6.0752" fill="none" stroke="#16f6f6" stroke-linecap="round" stroke-width="1.6191"/>
    <path d="m561.59-20.758-8.7537-0.14173s-13.826 30.151-15.89 46.354c-0.22024 1.7284-1.1686 4.455 0.4009 5.2118 3.0047 1.4489 8.2977-2.2769 8.2854-5.6127-4e-3 -0.96365 0.54403-4.7001-2.4054-1.6036-2.9495 2.9075-0.62486 6.1715 2.0478 8.3097 2.6727 2.1382 5.6729-1.9024 7.1028-3.9092 1.6874-2.3681 0.79115-5.6909-2.1868-3.2517-2.9387 2.407-1.5915 5.8917-0.0148 8.072 0.91233 1.2617 2.9597 1.9425 4.4384 1.4552 2.1942-0.72313 3.8263-3.349 4.0116-5.6518 0.10725-1.3333-0.29283-3.7247-1.7697-3.6014-2.8755 0.23996-3.6674 6.3119-0.53315 8.5999 4.4099 2.0045 6.1013 0.522 7.6172-1.5821 1.2577-1.7457 1.3949-6.3531-0.75595-6.4103-2.5806-0.0686-2.973 5.6538-1.3146 7.632 1.4234 1.6978 5.153 1.6686 6.6465 0.0322 1.6662-1.8256 1.7492-7.1482-0.71148-7.3807-2.9888-0.28243-2.7964 7.3346-0.21307 8.5026 1.938 0.87629 5.1998-2.27 4.6837-4.3333-3.6501-14.592-7.5669-39.918-10.685-50.691z" fill="none" stroke="#fff" stroke-width="2"/>
    <path d="m548.41-21.221 16.966 0.17156-0.21977 4.675-16.527 0.4289z" fill="#16f6f6" stroke="#16f6f6" stroke-width="1.8054"/>
    <path d="m544.03-25.461s7.6306-2.0726 13.56-2.0464c4.263 0.0189 10.721 2.2473 10.721 2.2473l2.5458-4.377-3.0078-1.9531-20.879 0.5165z" fill="none" stroke="#16f6f6" stroke-width="2"/>
    <path d="m545.31-35.086s7.6068-2.6458 12.284-2.0316c4.6775 0.61422 11.481 2.7403 11.481 2.7403l2.7483-2.4422-6.2808-8.0181-15.234 0.66818-6.949 6.1472z" fill="none" stroke="#16f6f6" stroke-width="1.9"/>
   </g>
   <g transform="matrix(1.29 0 0 .92181 185.97 -30.769)">
    <path d="m563.62-9.9856a49.181 48.614 0 0 1 41.566 48.027 49.181 48.614 0 0 1 -49.181 48.614 49.181 48.614 0 0 1 -49.181 -48.614 49.181 48.614 0 0 1 41.773 -48.059" fill="none" stroke="#fff" stroke-width="2"/>
    <path d="m548.6-10.017c-8.7938 1.7001-17.264 5.8554-17.264 5.8554s15.502-6.7486 16.37-10.156c1.5412-6.0461-3.8754-10.156-3.8754-10.156l2.94-5.6127-3.6081-6.949 6.949-6.1472 15.234-0.66818 6.2808 8.0181-3.7418 4.1427 2.4054 3.6081-4.1427 6.4145s-2.3386 6.0804 3.1404 10.624 10.136 5.1876 17.84 10.824c-7.6239-5.969-16.252-8.4573-23.27-9.6157" fill="none" stroke="#16f6f6" stroke-width="2"/>
    <path d="m551.65-44.694a6.2184 6.214 0 0 1 6.1104 -6.2902 6.2184 6.214 0 0 1 6.3245 6.0752" fill="none" stroke="#16f6f6" stroke-linecap="round" stroke-width="1.6191"/>
    <path d="m561.59-20.758-8.7537-0.14173s-13.826 30.151-15.89 46.354c-0.22024 1.7284-1.1686 4.455 0.4009 5.2118 3.0047 1.4489 8.2977-2.2769 8.2854-5.6127-4e-3 -0.96365 0.54403-4.7001-2.4054-1.6036-2.9495 2.9075-0.62486 6.1715 2.0478 8.3097 2.6727 2.1382 5.6729-1.9024 7.1028-3.9092 1.6874-2.3681 0.79115-5.6909-2.1868-3.2517-2.9387 2.407-1.5915 5.8917-0.0148 8.072 0.91233 1.2617 2.9597 1.9425 4.4384 1.4552 2.1942-0.72313 3.8263-3.349 4.0116-5.6518 0.10725-1.3333-0.29283-3.7247-1.7697-3.6014-2.8755 0.23996-3.6674 6.3119-0.53315 8.5999 4.4099 2.0045 6.1013 0.522 7.6172-1.5821 1.2577-1.7457 1.3949-6.3531-0.75595-6.4103-2.5806-0.0686-2.973 5.6538-1.3146 7.632 1.4234 1.6978 5.153 1.6686 6.6465 0.0322 1.6662-1.8256 1.7492-7.1482-0.71148-7.3807-2.9888-0.28243-2.7964 7.3346-0.21307 8.5026 1.938 0.87629 5.1998-2.27 4.6837-4.3333-3.6501-14.592-7.5669-39.918-10.685-50.691z" fill="none" stroke="#fff" stroke-width="2"/>
    <path d="m548.41-21.221 16.966 0.17156-0.21977 4.675-16.527 0.4289z" fill="#16f6f6" stroke="#16f6f6" stroke-width="1.8054"/>
    <path d="m544.03-25.461s7.6306-2.0726 13.56-2.0464c4.263 0.0189 10.721 2.2473 10.721 2.2473l2.5458-4.377-3.0078-1.9531-20.879 0.5165z" fill="none" stroke="#16f6f6" stroke-width="2"/>
    <path d="m545.31-35.086s7.6068-2.6458 12.284-2.0316c4.6775 0.61422 11.481 2.7403 11.481 2.7403l2.7483-2.4422-6.2808-8.0181-15.234 0.66818-6.949 6.1472z" fill="none" stroke="#16f6f6" stroke-width="1.9"/>
   </g>
   <g transform="matrix(.77389 0 0 .78868 146.88 -88.815)">
    <path d="m563.62-9.9856a49.181 48.614 0 0 1 41.566 48.027 49.181 48.614 0 0 1 -49.181 48.614 49.181 48.614 0 0 1 -49.181 -48.614 49.181 48.614 0 0 1 41.773 -48.059" fill="none" stroke="#fff" stroke-width="2"/>
    <path d="m548.6-10.017c-8.7938 1.7001-17.264 5.8554-17.264 5.8554s15.502-6.7486 16.37-10.156c1.5412-6.0461-3.8754-10.156-3.8754-10.156l2.94-5.6127-3.6081-6.949 6.949-6.1472 15.234-0.66818 6.2808 8.0181-3.7418 4.1427 2.4054 3.6081-4.1427 6.4145s-2.3386 6.0804 3.1404 10.624 10.136 5.1876 17.84 10.824c-7.6239-5.969-16.252-8.4573-23.27-9.6157" fill="none" stroke="#16f6f6" stroke-width="2"/>
    <path d="m551.65-44.694a6.2184 6.214 0 0 1 6.1104 -6.2902 6.2184 6.214 0 0 1 6.3245 6.0752" fill="none" stroke="#16f6f6" stroke-linecap="round" stroke-width="1.6191"/>
    <path d="m561.59-20.758-8.7537-0.14173s-13.826 30.151-15.89 46.354c-0.22024 1.7284-1.1686 4.455 0.4009 5.2118 3.0047 1.4489 8.2977-2.2769 8.2854-5.6127-4e-3 -0.96365 0.54403-4.7001-2.4054-1.6036-2.9495 2.9075-0.62486 6.1715 2.0478 8.3097 2.6727 2.1382 5.6729-1.9024 7.1028-3.9092 1.6874-2.3681 0.79115-5.6909-2.1868-3.2517-2.9387 2.407-1.5915 5.8917-0.0148 8.072 0.91233 1.2617 2.9597 1.9425 4.4384 1.4552 2.1942-0.72313 3.8263-3.349 4.0116-5.6518 0.10725-1.3333-0.29283-3.7247-1.7697-3.6014-2.8755 0.23996-3.6674 6.3119-0.53315 8.5999 4.4099 2.0045 6.1013 0.522 7.6172-1.5821 1.2577-1.7457 1.3949-6.3531-0.75595-6.4103-2.5806-0.0686-2.973 5.6538-1.3146 7.632 1.4234 1.6978 5.153 1.6686 6.6465 0.0322 1.6662-1.8256 1.7492-7.1482-0.71148-7.3807-2.9888-0.28243-2.7964 7.3346-0.21307 8.5026 1.938 0.87629 5.1998-2.27 4.6837-4.3333-3.6501-14.592-7.5669-39.918-10.685-50.691z" fill="none" stroke="#fff" stroke-width="2"/>
    <path d="m548.41-21.221 16.966 0.17156-0.21977 4.675-16.527 0.4289z" fill="#16f6f6" stroke="#16f6f6" stroke-width="1.8054"/>
    <path d="m544.03-25.461s7.6306-2.0726 13.56-2.0464c4.263 0.0189 10.721 2.2473 10.721 2.2473l2.5458-4.377-3.0078-1.9531-20.879 0.5165z" fill="none" stroke="#16f6f6" stroke-width="2"/>
    <path d="m545.31-35.086s7.6068-2.6458 12.284-2.0316c4.6775 0.61422 11.481 2.7403 11.481 2.7403l2.7483-2.4422-6.2808-8.0181-15.234 0.66818-6.949 6.1472z" fill="none" stroke="#16f6f6" stroke-width="1.9"/>
   </g>
   <g transform="matrix(.82477 0 0 .76964 330.51 -120.76)">
    <path d="m563.62-9.9856a49.181 48.614 0 0 1 41.566 48.027 49.181 48.614 0 0 1 -49.181 48.614 49.181 48.614 0 0 1 -49.181 -48.614 49.181 48.614 0 0 1 41.773 -48.059" fill="none" stroke="#fff" stroke-width="2"/>
    <path d="m548.6-10.017c-8.7938 1.7001-17.264 5.8554-17.264 5.8554s15.502-6.7486 16.37-10.156c1.5412-6.0461-3.8754-10.156-3.8754-10.156l2.94-5.6127-3.6081-6.949 6.949-6.1472 15.234-0.66818 6.2808 8.0181-3.7418 4.1427 2.4054 3.6081-4.1427 6.4145s-2.3386 6.0804 3.1404 10.624 10.136 5.1876 17.84 10.824c-7.6239-5.969-16.252-8.4573-23.27-9.6157" fill="none" stroke="#16f6f6" stroke-width="2"/>
    <path d="m551.65-44.694a6.2184 6.214 0 0 1 6.1104 -6.2902 6.2184 6.214 0 0 1 6.3245 6.0752" fill="none" stroke="#16f6f6" stroke-linecap="round" stroke-width="1.6191"/>
    <path d="m561.59-20.758-8.7537-0.14173s-13.826 30.151-15.89 46.354c-0.22024 1.7284-1.1686 4.455 0.4009 5.2118 3.0047 1.4489 8.2977-2.2769 8.2854-5.6127-4e-3 -0.96365 0.54403-4.7001-2.4054-1.6036-2.9495 2.9075-0.62486 6.1715 2.0478 8.3097 2.6727 2.1382 5.6729-1.9024 7.1028-3.9092 1.6874-2.3681 0.79115-5.6909-2.1868-3.2517-2.9387 2.407-1.5915 5.8917-0.0148 8.072 0.91233 1.2617 2.9597 1.9425 4.4384 1.4552 2.1942-0.72313 3.8263-3.349 4.0116-5.6518 0.10725-1.3333-0.29283-3.7247-1.7697-3.6014-2.8755 0.23996-3.6674 6.3119-0.53315 8.5999 4.4099 2.0045 6.1013 0.522 7.6172-1.5821 1.2577-1.7457 1.3949-6.3531-0.75595-6.4103-2.5806-0.0686-2.973 5.6538-1.3146 7.632 1.4234 1.6978 5.153 1.6686 6.6465 0.0322 1.6662-1.8256 1.7492-7.1482-0.71148-7.3807-2.9888-0.28243-2.7964 7.3346-0.21307 8.5026 1.938 0.87629 5.1998-2.27 4.6837-4.3333-3.6501-14.592-7.5669-39.918-10.685-50.691z" fill="none" stroke="#fff" stroke-width="2"/>
    <path d="m548.41-21.221 16.966 0.17156-0.21977 4.675-16.527 0.4289z" fill="#16f6f6" stroke="#16f6f6" stroke-width="1.8054"/>
    <path d="m544.03-25.461s7.6306-2.0726 13.56-2.0464c4.263 0.0189 10.721 2.2473 10.721 2.2473l2.5458-4.377-3.0078-1.9531-20.879 0.5165z" fill="none" stroke="#16f6f6" stroke-width="2"/>
    <path d="m545.31-35.086s7.6068-2.6458 12.284-2.0316c4.6775 0.61422 11.481 2.7403 11.481 2.7403l2.7483-2.4422-6.2808-8.0181-15.234 0.66818-6.949 6.1472z" fill="none" stroke="#16f6f6" stroke-width="1.9"/>
   </g>
   <g transform="matrix(.67223 0 0 .74504 614.04 -166.14)">
    <path d="m563.62-9.9856a49.181 48.614 0 0 1 41.566 48.027 49.181 48.614 0 0 1 -49.181 48.614 49.181 48.614 0 0 1 -49.181 -48.614 49.181 48.614 0 0 1 41.773 -48.059" fill="none" stroke="#fff" stroke-width="2"/>
    <path d="m548.6-10.017c-8.7938 1.7001-17.264 5.8554-17.264 5.8554s15.502-6.7486 16.37-10.156c1.5412-6.0461-3.8754-10.156-3.8754-10.156l2.94-5.6127-3.6081-6.949 6.949-6.1472 15.234-0.66818 6.2808 8.0181-3.7418 4.1427 2.4054 3.6081-4.1427 6.4145s-2.3386 6.0804 3.1404 10.624 10.136 5.1876 17.84 10.824c-7.6239-5.969-16.252-8.4573-23.27-9.6157" fill="none" stroke="#16f6f6" stroke-width="2"/>
    <path d="m551.65-44.694a6.2184 6.214 0 0 1 6.1104 -6.2902 6.2184 6.214 0 0 1 6.3245 6.0752" fill="none" stroke="#16f6f6" stroke-linecap="round" stroke-width="1.6191"/>
    <path d="m561.59-20.758-8.7537-0.14173s-13.826 30.151-15.89 46.354c-0.22024 1.7284-1.1686 4.455 0.4009 5.2118 3.0047 1.4489 8.2977-2.2769 8.2854-5.6127-4e-3 -0.96365 0.54403-4.7001-2.4054-1.6036-2.9495 2.9075-0.62486 6.1715 2.0478 8.3097 2.6727 2.1382 5.6729-1.9024 7.1028-3.9092 1.6874-2.3681 0.79115-5.6909-2.1868-3.2517-2.9387 2.407-1.5915 5.8917-0.0148 8.072 0.91233 1.2617 2.9597 1.9425 4.4384 1.4552 2.1942-0.72313 3.8263-3.349 4.0116-5.6518 0.10725-1.3333-0.29283-3.7247-1.7697-3.6014-2.8755 0.23996-3.6674 6.3119-0.53315 8.5999 4.4099 2.0045 6.1013 0.522 7.6172-1.5821 1.2577-1.7457 1.3949-6.3531-0.75595-6.4103-2.5806-0.0686-2.973 5.6538-1.3146 7.632 1.4234 1.6978 5.153 1.6686 6.6465 0.0322 1.6662-1.8256 1.7492-7.1482-0.71148-7.3807-2.9888-0.28243-2.7964 7.3346-0.21307 8.5026 1.938 0.87629 5.1998-2.27 4.6837-4.3333-3.6501-14.592-7.5669-39.918-10.685-50.691z" fill="none" stroke="#fff" stroke-width="2"/>
    <path d="m548.41-21.221 16.966 0.17156-0.21977 4.675-16.527 0.4289z" fill="#16f6f6" stroke="#16f6f6" stroke-width="1.8054"/>
    <path d="m544.03-25.461s7.6306-2.0726 13.56-2.0464c4.263 0.0189 10.721 2.2473 10.721 2.2473l2.5458-4.377-3.0078-1.9531-20.879 0.5165z" fill="none" stroke="#16f6f6" stroke-width="2"/>
    <path d="m545.31-35.086s7.6068-2.6458 12.284-2.0316c4.6775 0.61422 11.481 2.7403 11.481 2.7403l2.7483-2.4422-6.2808-8.0181-15.234 0.66818-6.949 6.1472z" fill="none" stroke="#16f6f6" stroke-width="1.9"/>
   </g>
   <path d="m989.16-204.76v-93.55" fill="none" stroke="#16f6f6" stroke-width="1.4798"/>
   <path d="m905.42-77.58v-220.73" fill="none" stroke="#16f6f6" stroke-width="2.2731"/>
   <path d="m790.84-159.84v-138.47" fill="none" stroke="#16f6f6" stroke-width="1.8004"/>
   <path d="m687.28-208.75v-89.566" fill="none" stroke="#16f6f6" stroke-width="1.448"/>
   <path d="m578.22-128.37v-169.94" fill="none" stroke="#16f6f6" stroke-width="1.9945"/>
  </g>
 </g>
</svg>
